# xmcd
#
# Track frame offsets: 
#        150
#        13810
#        29504
#        46368
#        63427
#        79316
#        94954
#        113372
#        127255
#        146070
#        158810
#        170603
#        186492
#
# Disc length: 2668 seconds
#
# Revision: 0
# Processed by: cddbd v1.5.2PL0 Copyright (c) Steve Scherf et al.
# Submitted via: ExactAudioCopy v0.99pb4
#
DISCID=bb0a6a0d
DTITLE=Anett Louisan - Bohème
DYEAR=2004
DGENRE=Chanson
TTITLE0=Das Spiel
TTITLE1=Das Liebeslied
TTITLE2=Die Formel
TTITLE3=Die Trägheit
TTITLE4=Der Blender
TTITLE5=Die Gelegenheit
TTITLE6=Der Schöne
TTITLE7=Die Katze
TTITLE8=Daddy
TTITLE9=Das Gefühl
TTITLE10=Die Dinge
TTITLE11=Die Lüge
TTITLE12=Das Spiel (Remix)
EXTD=
EXTT0=
EXTT1=
EXTT2=
EXTT3=
EXTT4=
EXTT5=
EXTT6=
EXTT7=
EXTT8=
EXTT9=
EXTT10=
EXTT11=
EXTT12=
PLAYORDER=
